<svg version="1.1" width="600" height="400" xmlns="http://www.w3.org/2000/svg">
<rect width="0.059012" height="8.017097" fill="rgb(66,66,66)" transform="translate(0.000000 0.789847) rotate(0) translate(-0.029506 -4.008548)"/>
<rect width="0.059533" height="8.017040" fill="rgb(42,42,42)" transform="translate(1.729107 0.909267) rotate(0) translate(-0.029767 -4.008520)"/>
<rect width="0.054589" height="8.016052" fill="rgb(32,32,32)" transform="translate(3.458213 1.022919) rotate(0) translate(-0.027294 -4.008026)"/>
<rect width="0.072366" height="8.020938" fill="rgb(35,35,35)" transform="translate(5.187320 1.229198) rotate(0) translate(-0.036183 -4.010469)"/>
<rect width="0.061947" height="8.022682" fill="rgb(34,34,34)" transform="translate(6.916426 0.919573) rotate(0) translate(-0.030973 -4.011341)"/>
<rect width="0.049247" height="8.013224" fill="rgb(51,51,51)" transform="translate(8.645533 0.941957) rotate(0) translate(-0.024623 -4.006612)"/>
<rect width="0.064614" height="8.015359" fill="rgb(52,52,52)" transform="translate(10.374640 1.014262) rotate(0) translate(-0.032307 -4.007679)"/>
<rect width="0.062911" height="8.023919" fill="rgb(63,63,63)" transform="translate(12.103746 0.896350) rotate(0) translate(-0.031456 -4.011960)"/>
<rect width="0.065426" height="8.014048" fill="rgb(98,98,98)" transform="translate(13.832852 1.104982) rotate(0) translate(-0.032713 -4.007024)"/>
<rect width="0.287251" height="8.051470" fill="rgb(89,89,89)" transform="translate(15.561960 7.754559) rotate(0) translate(-0.143625 -4.025735)"/>
<rect width="0.629730" height="8.208651" fill="rgb(64,64,64)" transform="translate(17.291065 19.805107) rotate(0) translate(-0.314865 -4.104325)"/>
<rect width="0.830068" height="8.320603" fill="rgb(70,70,70)" transform="translate(19.020172 33.136131) rotate(0) translate(-0.415034 -4.160302)"/>
<rect width="0.998155" height="8.489527" fill="rgb(80,80,80)" transform="translate(20.749281 50.384777) rotate(2) translate(-0.499078 -4.244763)"/>
<rect width="1.098533" height="8.587513" fill="rgb(87,87,87)" transform="translate(22.478386 58.999115) rotate(2) translate(-0.549267 -4.293756)"/>
<rect width="1.440273" height="8.683169" fill="rgb(85,85,85)" transform="translate(24.207493 67.853706) rotate(3) translate(-0.720136 -4.341585)"/>
<rect width="1.518284" height="8.763476" fill="rgb(84,84,84)" transform="translate(25.936600 80.211655) rotate(4) translate(-0.759142 -4.381738)"/>
<rect width="1.660413" height="8.834961" fill="rgb(85,85,85)" transform="translate(27.665705 97.287979) rotate(7) translate(-0.830206 -4.417480)"/>
<rect width="1.709445" height="8.999249" fill="rgb(100,100,100)" transform="translate(29.394814 103.537811) rotate(10) translate(-0.854723 -4.499624)"/>
<rect width="1.748291" height="9.191317" fill="rgb(105,105,105)" transform="translate(31.123920 105.642937) rotate(10) translate(-0.874146 -4.595658)"/>
<rect width="1.547111" height="9.005516" fill="rgb(92,92,92)" transform="translate(32.853027 109.331848) rotate(9) translate(-0.773556 -4.502758)"/>
<rect width="1.838896" height="9.206122" fill="rgb(96,96,96)" transform="translate(34.582130 126.542259) rotate(13) translate(-0.919448 -4.603061)"/>
<rect width="1.913103" height="9.364589" fill="rgb(112,112,112)" transform="translate(36.311237 131.810394) rotate(17) translate(-0.956551 -4.682294)"/>
<rect width="1.717389" height="9.244326" fill="rgb(120,120,120)" transform="translate(38.040344 118.928947) rotate(15) translate(-0.858694 -4.622163)"/>
<rect width="1.640466" height="9.149306" fill="rgb(105,105,105)" transform="translate(39.769451 121.740677) rotate(10) translate(-0.820233 -4.574653)"/>
<rect width="1.766398" height="9.257747" fill="rgb(89,89,89)" transform="translate(41.498562 129.364258) rotate(12) translate(-0.883199 -4.628873)"/>
<rect width="1.815261" height="9.278903" fill="rgb(97,97,97)" transform="translate(43.227665 131.360245) rotate(13) translate(-0.907630 -4.639452)"/>
<rect width="1.890225" height="9.360270" fill="rgb(104,104,104)" transform="translate(44.956772 131.796402) rotate(17) translate(-0.945113 -4.680135)"/>
<rect width="1.882877" height="9.383030" fill="rgb(85,85,85)" transform="translate(46.685879 123.752991) rotate(14) translate(-0.941439 -4.691515)"/>
<rect width="2.008615" height="9.416089" fill="rgb(84,84,84)" transform="translate(48.414986 147.839111) rotate(19) translate(-1.004307 -4.708045)"/>
<rect width="2.370344" height="9.763292" fill="rgb(93,93,93)" transform="translate(50.144093 163.875412) rotate(24) translate(-1.185172 -4.881646)"/>
<rect width="2.146329" height="9.616995" fill="rgb(89,89,89)" transform="translate(51.873199 151.149521) rotate(16) translate(-1.073165 -4.808497)"/>
<rect width="2.149958" height="9.586302" fill="rgb(87,87,87)" transform="translate(53.602306 153.276031) rotate(19) translate(-1.074979 -4.793151)"/>
<rect width="2.304100" height="9.698412" fill="rgb(86,86,86)" transform="translate(55.331409 154.989105) rotate(22) translate(-1.152050 -4.849206)"/>
<rect width="2.230787" height="9.622703" fill="rgb(97,97,97)" transform="translate(57.060520 172.755219) rotate(23) translate(-1.115393 -4.811351)"/>
<rect width="2.606816" height="9.872916" fill="rgb(110,110,110)" transform="translate(58.789627 201.525452) rotate(40) translate(-1.303408 -4.936458)"/>
<rect width="2.862117" height="10.087796" fill="rgb(98,98,98)" transform="translate(60.518730 194.982590) rotate(28) translate(-1.431059 -5.043898)"/>
<rect width="2.441143" height="9.727488" fill="rgb(87,87,87)" transform="translate(62.247841 169.697174) rotate(20) translate(-1.220571 -4.863744)"/>
<rect width="2.283624" height="9.632542" fill="rgb(92,92,92)" transform="translate(63.976944 159.661819) rotate(21) translate(-1.141812 -4.816271)"/>
<rect width="2.241719" height="9.597088" fill="rgb(110,110,110)" transform="translate(65.706055 148.893387) rotate(23) translate(-1.120860 -4.798544)"/>
<rect width="2.362765" height="9.639913" fill="rgb(118,118,118)" transform="translate(67.435158 167.284271) rotate(27) translate(-1.181382 -4.819956)"/>
<rect width="2.377785" height="9.596049" fill="rgb(92,92,92)" transform="translate(69.164261 159.516296) rotate(15) translate(-1.188892 -4.798025)"/>
<rect width="2.399050" height="9.594427" fill="rgb(70,70,70)" transform="translate(70.893372 150.289398) rotate(16) translate(-1.199525 -4.797214)"/>
<rect width="2.306660" height="9.509043" fill="rgb(76,76,76)" transform="translate(72.622475 145.982529) rotate(16) translate(-1.153330 -4.754521)"/>
<rect width="2.227064" height="9.472141" fill="rgb(82,82,82)" transform="translate(74.351585 128.200806) rotate(13) translate(-1.113532 -4.736071)"/>
<rect width="1.965558" height="9.287576" fill="rgb(84,84,84)" transform="translate(76.080688 96.735573) rotate(7) translate(-0.982779 -4.643788)"/>
<rect width="1.700042" height="8.936298" fill="rgb(82,82,82)" transform="translate(77.809799 94.932625) rotate(6) translate(-0.850021 -4.468149)"/>
<rect width="1.791187" height="8.906262" fill="rgb(77,77,77)" transform="translate(79.538902 97.894028) rotate(6) translate(-0.895593 -4.453131)"/>
<rect width="1.871439" height="8.929847" fill="rgb(73,73,73)" transform="translate(81.268013 90.432648) rotate(5) translate(-0.935720 -4.464923)"/>
<rect width="1.883488" height="8.916301" fill="rgb(69,69,69)" transform="translate(82.997124 81.595909) rotate(5) translate(-0.941744 -4.458150)"/>
<rect width="1.840506" height="8.850014" fill="rgb(68,68,68)" transform="translate(84.726227 61.200897) rotate(3) translate(-0.920253 -4.425007)"/>
<rect width="1.057154" height="8.569581" fill="rgb(70,70,70)" transform="translate(86.455330 50.147301) rotate(1) translate(-0.528577 -4.284791)"/>
<rect width="0.854632" height="8.458154" fill="rgb(79,79,79)" transform="translate(88.184433 52.318836) rotate(1) translate(-0.427316 -4.229077)"/>
<rect width="1.105092" height="8.519389" fill="rgb(87,87,87)" transform="translate(89.913544 69.991470) rotate(2) translate(-0.552546 -4.259695)"/>
<rect width="1.235187" height="8.696733" fill="rgb(92,92,92)" transform="translate(91.642654 73.017105) rotate(3) translate(-0.617593 -4.348367)"/>
<rect width="1.060011" height="8.600090" fill="rgb(97,97,97)" transform="translate(93.371758 73.955170) rotate(3) translate(-0.530006 -4.300045)"/>
<rect width="1.173571" height="8.703918" fill="rgb(108,108,108)" transform="translate(95.100868 84.158951) rotate(4) translate(-0.586785 -4.351959)"/>
<rect width="1.130714" height="8.675556" fill="rgb(112,112,112)" transform="translate(96.829971 93.529808) rotate(4) translate(-0.565357 -4.337778)"/>
<rect width="1.394280" height="8.894278" fill="rgb(99,99,99)" transform="translate(98.559074 117.971756) rotate(8) translate(-0.697140 -4.447139)"/>
<rect width="1.521768" height="9.055614" fill="rgb(99,99,99)" transform="translate(100.288185 111.119484) rotate(8) translate(-0.760884 -4.527807)"/>
<rect width="1.460199" height="9.032957" fill="rgb(91,91,91)" transform="translate(102.017296 110.599136) rotate(7) translate(-0.730099 -4.516479)"/>
<rect width="1.573558" height="9.121282" fill="rgb(75,75,75)" transform="translate(103.746399 123.746979) rotate(9) translate(-0.786779 -4.560641)"/>
<rect width="1.921768" height="9.392178" fill="rgb(70,70,70)" transform="translate(105.475502 141.355057) rotate(13) translate(-0.960884 -4.696089)"/>
<rect width="1.967548" height="9.478996" fill="rgb(67,67,67)" transform="translate(107.204613 140.657501) rotate(12) translate(-0.983774 -4.739498)"/>
<rect width="1.870216" height="9.378939" fill="rgb(73,73,73)" transform="translate(108.933716 137.903564) rotate(11) translate(-0.935108 -4.689469)"/>
<rect width="1.854800" height="9.389622" fill="rgb(77,77,77)" transform="translate(110.662819 132.609970) rotate(10) translate(-0.927400 -4.694811)"/>
<rect width="1.573626" height="9.152769" fill="rgb(80,80,80)" transform="translate(112.391937 125.485077) rotate(8) translate(-0.786813 -4.576385)"/>
<rect width="1.391403" height="9.008827" fill="rgb(84,84,84)" transform="translate(114.121040 114.224480) rotate(6) translate(-0.695702 -4.504414)"/>
<rect width="1.506549" height="9.068922" fill="rgb(84,84,84)" transform="translate(115.850143 127.568649) rotate(10) translate(-0.753274 -4.534461)"/>
<rect width="1.751365" height="9.308597" fill="rgb(84,84,84)" transform="translate(117.579254 132.119843) rotate(11) translate(-0.875683 -4.654298)"/>
<rect width="1.739849" height="9.297538" fill="rgb(81,81,81)" transform="translate(119.308357 129.760406) rotate(9) translate(-0.869925 -4.648769)"/>
<rect width="1.537376" height="9.104108" fill="rgb(84,84,84)" transform="translate(121.037460 115.130974) rotate(7) translate(-0.768688 -4.552054)"/>
<rect width="1.427231" height="9.037901" fill="rgb(93,93,93)" transform="translate(122.766563 114.220451) rotate(7) translate(-0.713615 -4.518950)"/>
<rect width="1.424817" height="9.014355" fill="rgb(94,94,94)" transform="translate(124.495682 124.361946) rotate(8) translate(-0.712408 -4.507177)"/>
<rect width="1.658800" height="9.167844" fill="rgb(90,90,90)" transform="translate(126.224785 146.393997) rotate(13) translate(-0.829400 -4.583922)"/>
<rect width="1.818928" height="9.333509" fill="rgb(75,75,75)" transform="translate(127.953888 139.434708) rotate(11) translate(-0.909464 -4.666755)"/>
<rect width="1.942085" height="9.431921" fill="rgb(65,65,65)" transform="translate(129.682999 148.591461) rotate(15) translate(-0.971043 -4.715961)"/>
<rect width="2.182483" height="9.673643" fill="rgb(69,69,69)" transform="translate(131.412109 151.333267) rotate(15) translate(-1.091242 -4.836822)"/>
<rect width="2.068882" height="9.591358" fill="rgb(64,64,64)" transform="translate(133.141205 152.229355) rotate(15) translate(-1.034441 -4.795679)"/>
<rect width="2.094261" height="9.592387" fill="rgb(70,70,70)" transform="translate(134.870316 145.855911) rotate(14) translate(-1.047130 -4.796194)"/>
<rect width="2.198304" height="9.619711" fill="rgb(86,86,86)" transform="translate(136.599426 156.496063) rotate(19) translate(-1.099152 -4.809855)"/>
<rect width="2.306514" height="9.666620" fill="rgb(87,87,87)" transform="translate(138.328522 156.078827) rotate(18) translate(-1.153257 -4.833310)"/>
<rect width="2.004651" height="9.426648" fill="rgb(92,92,92)" transform="translate(140.057648 135.105057) rotate(13) translate(-1.002325 -4.713324)"/>
<rect width="1.637086" height="9.139021" fill="rgb(92,92,92)" transform="translate(141.786743 113.783936) rotate(7) translate(-0.818543 -4.569510)"/>
<rect width="1.695499" height="9.084469" fill="rgb(83,83,83)" transform="translate(143.515854 124.524628) rotate(9) translate(-0.847750 -4.542234)"/>
<rect width="1.773101" height="9.148673" fill="rgb(80,80,80)" transform="translate(145.244949 110.575867) rotate(8) translate(-0.886551 -4.574337)"/>
<rect width="1.573248" height="8.981544" fill="rgb(79,79,79)" transform="translate(146.974060 97.041496) rotate(5) translate(-0.786624 -4.490772)"/>
<rect width="1.553877" height="8.901909" fill="rgb(77,77,77)" transform="translate(148.703171 97.956078) rotate(6) translate(-0.776939 -4.450954)"/>
<rect width="1.752702" height="9.037336" fill="rgb(78,78,78)" transform="translate(150.432281 106.878448) rotate(8) translate(-0.876351 -4.518668)"/>
<rect width="1.666348" height="9.020948" fill="rgb(78,78,78)" transform="translate(152.161377 104.897858) rotate(6) translate(-0.833174 -4.510474)"/>
<rect width="1.659118" height="8.956335" fill="rgb(72,72,72)" transform="translate(153.890488 92.616112) rotate(5) translate(-0.829559 -4.478168)"/>
<rect width="1.586438" height="8.833466" fill="rgb(77,77,77)" transform="translate(155.619598 79.119476) rotate(3) translate(-0.793219 -4.416733)"/>
<rect width="1.297642" height="8.696942" fill="rgb(84,84,84)" transform="translate(157.348694 62.581802) rotate(2) translate(-0.648821 -4.348471)"/>
<rect width="1.028437" height="8.525998" fill="rgb(82,82,82)" transform="translate(159.077805 57.619625) rotate(1) translate(-0.514218 -4.262999)"/>
<rect width="1.239878" height="8.635526" fill="rgb(79,79,79)" transform="translate(160.806931 64.688026) rotate(3) translate(-0.619939 -4.317763)"/>
<rect width="1.269612" height="8.689326" fill="rgb(78,78,78)" transform="translate(162.536026 68.697235) rotate(3) translate(-0.634806 -4.344663)"/>
<rect width="1.266496" height="8.729706" fill="rgb(77,77,77)" transform="translate(164.265137 75.799896) rotate(4) translate(-0.633248 -4.364853)"/>
<rect width="1.302005" height="8.767210" fill="rgb(77,77,77)" transform="translate(165.994247 80.640366) rotate(4) translate(-0.651002 -4.383605)"/>
<rect width="1.465873" height="8.905859" fill="rgb(72,72,72)" transform="translate(167.723343 99.380836) rotate(6) translate(-0.732937 -4.452929)"/>
<rect width="1.633810" height="9.051586" fill="rgb(66,66,66)" transform="translate(169.452454 102.962967) rotate(6) translate(-0.816905 -4.525793)"/>
<rect width="1.618540" height="9.075382" fill="rgb(77,77,77)" transform="translate(171.181549 112.222038) rotate(6) translate(-0.809270 -4.537691)"/>
<rect width="1.534849" height="9.011385" fill="rgb(80,80,80)" transform="translate(172.910660 113.619591) rotate(6) translate(-0.767425 -4.505692)"/>
<rect width="1.423738" height="8.926089" fill="rgb(84,84,84)" transform="translate(174.639771 112.659981) rotate(6) translate(-0.711869 -4.463045)"/>
<rect width="1.590183" height="9.050920" fill="rgb(89,89,89)" transform="translate(176.368866 133.862869) rotate(8) translate(-0.795091 -4.525460)"/>
<rect width="1.778797" height="9.240237" fill="rgb(87,87,87)" transform="translate(178.097977 145.542953) rotate(11) translate(-0.889398 -4.620119)"/>
<rect width="1.890404" height="9.319674" fill="rgb(90,90,90)" transform="translate(179.827087 143.363770) rotate(11) translate(-0.945202 -4.659837)"/>
<rect width="1.815680" height="9.309062" fill="rgb(84,84,84)" transform="translate(181.556183 137.381912) rotate(10) translate(-0.907840 -4.654531)"/>
<rect width="1.937847" height="9.397539" fill="rgb(70,70,70)" transform="translate(183.285309 149.902313) rotate(11) translate(-0.968924 -4.698770)"/>
<rect width="2.013163" height="9.483638" fill="rgb(64,64,64)" transform="translate(185.014420 157.983215) rotate(12) translate(-1.006582 -4.741819)"/>
<rect width="2.163819" height="9.563087" fill="rgb(70,70,70)" transform="translate(186.743515 182.281448) rotate(16) translate(-1.081910 -4.781544)"/>
<rect width="2.361087" height="9.720932" fill="rgb(78,78,78)" transform="translate(188.472626 187.966248) rotate(18) translate(-1.180543 -4.860466)"/>
<rect width="2.288850" height="9.654449" fill="rgb(82,82,82)" transform="translate(190.201736 181.736145) rotate(17) translate(-1.144425 -4.827225)"/>
<rect width="2.105497" height="9.544317" fill="rgb(85,85,85)" transform="translate(191.930832 161.241989) rotate(11) translate(-1.052748 -4.772159)"/>
<rect width="1.844723" height="9.338177" fill="rgb(83,83,83)" transform="translate(193.659943 147.537338) rotate(10) translate(-0.922361 -4.669088)"/>
<rect width="1.802579" height="9.271335" fill="rgb(81,81,81)" transform="translate(195.389053 157.883331) rotate(11) translate(-0.901290 -4.635667)"/>
<rect width="1.840127" height="9.295247" fill="rgb(82,82,82)" transform="translate(197.118149 162.417419) rotate(12) translate(-0.920063 -4.647624)"/>
<rect width="1.838035" height="9.302570" fill="rgb(86,86,86)" transform="translate(198.847260 154.914337) rotate(11) translate(-0.919018 -4.651285)"/>
<rect width="1.651974" height="9.140676" fill="rgb(88,88,88)" transform="translate(200.576370 133.398407) rotate(8) translate(-0.825987 -4.570338)"/>
<rect width="1.601850" height="9.059031" fill="rgb(86,86,86)" transform="translate(202.305466 131.653107) rotate(9) translate(-0.800925 -4.529516)"/>
<rect width="1.739979" height="9.167061" fill="rgb(84,84,84)" transform="translate(204.034592 144.252045) rotate(11) translate(-0.869990 -4.583530)"/>
<rect width="1.935410" height="9.322792" fill="rgb(84,84,84)" transform="translate(205.763702 168.213715) rotate(15) translate(-0.967705 -4.661396)"/>
<rect width="2.214451" height="9.550169" fill="rgb(84,84,84)" transform="translate(207.492798 190.145218) rotate(19) translate(-1.107225 -4.775084)"/>
<rect width="2.255522" height="9.584417" fill="rgb(78,78,78)" transform="translate(209.221909 182.147156) rotate(18) translate(-1.127761 -4.792209)"/>
<rect width="2.288046" height="9.631775" fill="rgb(73,73,73)" transform="translate(210.951004 172.026367) rotate(15) translate(-1.144023 -4.815887)"/>
<rect width="2.053644" height="9.438177" fill="rgb(73,73,73)" transform="translate(212.680115 146.857941) rotate(11) translate(-1.026822 -4.719089)"/>
<rect width="1.854121" height="9.260447" fill="rgb(73,73,73)" transform="translate(214.409225 137.840057) rotate(9) translate(-0.927060 -4.630223)"/>
<rect width="1.991046" height="9.339752" fill="rgb(72,72,72)" transform="translate(216.138321 146.909515) rotate(11) translate(-0.995523 -4.669876)"/>
<rect width="2.031386" height="9.347402" fill="rgb(70,70,70)" transform="translate(217.867432 140.262451) rotate(10) translate(-1.015693 -4.673701)"/>
<rect width="1.967988" height="9.245770" fill="rgb(71,71,71)" transform="translate(219.596542 134.994965) rotate(9) translate(-0.983994 -4.622885)"/>
<rect width="2.204740" height="9.391998" fill="rgb(74,74,74)" transform="translate(221.325638 155.944199) rotate(13) translate(-1.102370 -4.695999)"/>
<rect width="2.287655" height="9.461404" fill="rgb(78,78,78)" transform="translate(223.054749 133.963913) rotate(10) translate(-1.143828 -4.730702)"/>
<rect width="2.129613" height="9.298990" fill="rgb(75,75,75)" transform="translate(224.783875 115.957771) rotate(8) translate(-1.064807 -4.649495)"/>
<rect width="1.907086" height="9.062359" fill="rgb(69,69,69)" transform="translate(226.512970 95.083321) rotate(5) translate(-0.953543 -4.531179)"/>
<rect width="1.734328" height="8.918166" fill="rgb(69,69,69)" transform="translate(228.242081 89.149269) rotate(4) translate(-0.867164 -4.459083)"/>
<rect width="1.632108" height="8.844716" fill="rgb(78,78,78)" transform="translate(229.971191 84.038147) rotate(4) translate(-0.816054 -4.422358)"/>
<rect width="1.404413" height="8.712643" fill="rgb(84,84,84)" transform="translate(231.700287 65.297630) rotate(2) translate(-0.702206 -4.356321)"/>
<rect width="1.069053" height="8.548424" fill="rgb(84,84,84)" transform="translate(233.429398 65.762283) rotate(3) translate(-0.534527 -4.274212)"/>
<rect width="1.381620" height="8.820083" fill="rgb(85,85,85)" transform="translate(235.158508 88.417053) rotate(5) translate(-0.690810 -4.410041)"/>
<rect width="1.648600" height="9.064704" fill="rgb(92,92,92)" transform="translate(236.887604 113.029251) rotate(12) translate(-0.824300 -4.532352)"/>
<rect width="1.667686" height="9.162361" fill="rgb(94,94,94)" transform="translate(238.616714 106.954300) rotate(9) translate(-0.833843 -4.581181)"/>
<rect width="1.744533" height="9.188342" fill="rgb(92,92,92)" transform="translate(240.345825 128.510620) rotate(15) translate(-0.872266 -4.594171)"/>
<rect width="2.053621" height="9.527337" fill="rgb(87,87,87)" transform="translate(242.074921 129.117615) rotate(15) translate(-1.026810 -4.763669)"/>
<rect width="1.830700" height="9.347248" fill="rgb(83,83,83)" transform="translate(243.804031 138.005844) rotate(15) translate(-0.915350 -4.673624)"/>
<rect width="1.870602" height="9.399757" fill="rgb(89,89,89)" transform="translate(245.533127 123.454857) rotate(9) translate(-0.935301 -4.699879)"/>
<rect width="1.694654" height="9.182623" fill="rgb(102,102,102)" transform="translate(247.262253 129.697769) rotate(11) translate(-0.847327 -4.591311)"/>
<rect width="1.648660" height="9.181196" fill="rgb(95,95,95)" transform="translate(248.991364 111.534325) rotate(9) translate(-0.824330 -4.590598)"/>
<rect width="1.508205" height="9.025367" fill="rgb(78,78,78)" transform="translate(250.720459 117.125198) rotate(9) translate(-0.754103 -4.512683)"/>
<rect width="1.895607" height="9.348160" fill="rgb(70,70,70)" transform="translate(252.449570 140.584061) rotate(15) translate(-0.947803 -4.674080)"/>
<rect width="2.374301" height="9.713912" fill="rgb(71,71,71)" transform="translate(254.178680 172.983749) rotate(30) translate(-1.187150 -4.856956)"/>
<rect width="2.952395" height="10.303846" fill="rgb(70,70,70)" transform="translate(255.907776 169.761032) rotate(31) translate(-1.476197 -5.151923)"/>
<rect width="2.457705" height="9.899990" fill="rgb(65,65,65)" transform="translate(257.636902 142.827133) rotate(20) translate(-1.228853 -4.949995)"/>
<rect width="2.121426" height="9.633907" fill="rgb(77,77,77)" transform="translate(259.365997 130.140106) rotate(13) translate(-1.060713 -4.816954)"/>
<rect width="1.639010" height="9.164464" fill="rgb(91,91,91)" transform="translate(261.095093 118.308746) rotate(8) translate(-0.819505 -4.582232)"/>
<rect width="1.574591" height="9.075244" fill="rgb(102,102,102)" transform="translate(262.824219 129.011353) rotate(14) translate(-0.787296 -4.537622)"/>
<rect width="2.111154" height="9.583522" fill="rgb(100,100,100)" transform="translate(264.553314 151.899094) rotate(21) translate(-1.055577 -4.791761)"/>
<rect width="1.863251" height="9.323484" fill="rgb(93,93,93)" transform="translate(266.282410 148.238770) rotate(14) translate(-0.931625 -4.661742)"/>
<rect width="1.967747" height="9.437419" fill="rgb(84,84,84)" transform="translate(268.011536 148.296829) rotate(13) translate(-0.983873 -4.718709)"/>
<rect width="2.208408" height="9.591208" fill="rgb(73,73,73)" transform="translate(269.740631 173.578537) rotate(19) translate(-1.104204 -4.795604)"/>
<rect width="2.315581" height="9.715067" fill="rgb(76,76,76)" transform="translate(271.469727 169.252426) rotate(19) translate(-1.157791 -4.857533)"/>
<rect width="2.184423" height="9.627613" fill="rgb(88,88,88)" transform="translate(273.198853 167.107574) rotate(19) translate(-1.092211 -4.813807)"/>
<rect width="2.259571" height="9.690969" fill="rgb(87,87,87)" transform="translate(274.927948 168.238235) rotate(18) translate(-1.129785 -4.845485)"/>
<rect width="2.009848" height="9.441657" fill="rgb(91,91,91)" transform="translate(276.657043 160.323517) rotate(18) translate(-1.004924 -4.720829)"/>
<rect width="2.267175" height="9.692609" fill="rgb(100,100,100)" transform="translate(278.386169 157.240448) rotate(20) translate(-1.133588 -4.846304)"/>
<rect width="1.938534" height="9.356388" fill="rgb(100,100,100)" transform="translate(280.115295 155.437531) rotate(18) translate(-0.969267 -4.678194)"/>
<rect width="2.320144" height="9.705847" fill="rgb(102,102,102)" transform="translate(281.844391 187.050461) rotate(28) translate(-1.160072 -4.852923)"/>
<rect width="2.253969" height="9.672804" fill="rgb(92,92,92)" transform="translate(283.573486 158.229202) rotate(15) translate(-1.126985 -4.836402)"/>
<rect width="2.190672" height="9.442087" fill="rgb(87,87,87)" transform="translate(285.302582 162.591629) rotate(20) translate(-1.095336 -4.721044)"/>
<rect width="2.471369" height="9.713139" fill="rgb(94,94,94)" transform="translate(287.031708 169.729660) rotate(25) translate(-1.235685 -4.856569)"/>
<rect width="2.312071" height="9.633387" fill="rgb(90,90,90)" transform="translate(288.760803 146.059219) rotate(17) translate(-1.156035 -4.816693)"/>
<rect width="1.877218" height="9.222157" fill="rgb(94,94,94)" transform="translate(290.489899 124.631378) rotate(10) translate(-0.938609 -4.611078)"/>
<rect width="1.831830" height="9.115135" fill="rgb(98,98,98)" transform="translate(292.219025 133.149567) rotate(14) translate(-0.915915 -4.557568)"/>
<rect width="1.894331" height="9.288179" fill="rgb(99,99,99)" transform="translate(293.948120 112.085533) rotate(9) translate(-0.947166 -4.644090)"/>
<rect width="1.776933" height="9.108494" fill="rgb(93,93,93)" transform="translate(295.677216 115.191559) rotate(11) translate(-0.888467 -4.554247)"/>
<rect width="1.801465" height="9.094975" fill="rgb(84,84,84)" transform="translate(297.406342 92.913025) rotate(7) translate(-0.900733 -4.547487)"/>
<rect width="1.127495" height="8.962788" fill="rgb(54,54,54)" transform="translate(299.135468 51.410515) rotate(3) translate(-0.563748 -4.481394)"/>
<rect width="0.341986" height="8.266955" fill="rgb(10,10,10)" transform="translate(300.864563 0.406835) rotate(0) translate(-0.170993 -4.133478)"/>
<rect width="0.000000" height="8.000000" fill="rgb(0,0,0)" transform="translate(302.593658 0.000000) rotate(0) translate(-0.000000 -4.000000)"/>
<rect width="0.000000" height="8.000000" fill="rgb(0,0,0)" transform="translate(304.322754 0.000000) rotate(0) translate(-0.000000 -4.000000)"/>
<rect width="0.000000" height="8.000000" fill="rgb(0,0,0)" transform="translate(306.051880 0.000000) rotate(0) translate(-0.000000 -4.000000)"/>
<rect width="0.000000" height="8.000000" fill="rgb(0,0,0)" transform="translate(307.780975 0.000000) rotate(0) translate(-0.000000 -4.000000)"/>
<rect width="0.000000" height="8.000000" fill="rgb(0,0,0)" transform="translate(309.510071 0.000000) rotate(0) translate(-0.000000 -4.000000)"/>
<rect width="0.000000" height="8.000000" fill="rgb(0,0,0)" transform="translate(311.239197 0.000000) rotate(0) translate(-0.000000 -4.000000)"/>
<rect width="0.000000" height="8.000000" fill="rgb(0,0,0)" transform="translate(312.968292 0.000000) rotate(0) translate(-0.000000 -4.000000)"/>
<rect width="0.000000" height="8.000000" fill="rgb(0,0,0)" transform="translate(314.697388 0.000000) rotate(0) translate(-0.000000 -4.000000)"/>
<rect width="0.000000" height="8.000000" fill="rgb(0,0,0)" transform="translate(316.426514 0.000000) rotate(0) translate(-0.000000 -4.000000)"/>
<rect width="0.000000" height="8.000000" fill="rgb(0,0,0)" transform="translate(318.155609 0.000000) rotate(0) translate(-0.000000 -4.000000)"/>
<rect width="0.000000" height="8.000000" fill="rgb(0,0,0)" transform="translate(319.884705 0.000000) rotate(0) translate(-0.000000 -4.000000)"/>
<rect width="0.000000" height="8.000000" fill="rgb(0,0,0)" transform="translate(321.613861 0.000000) rotate(0) translate(-0.000000 -4.000000)"/>
<rect width="0.000000" height="8.000000" fill="rgb(0,0,0)" transform="translate(323.342957 0.000000) rotate(0) translate(-0.000000 -4.000000)"/>
<rect width="0.000000" height="8.000000" fill="rgb(0,0,0)" transform="translate(325.072052 0.000000) rotate(0) translate(-0.000000 -4.000000)"/>
<rect width="0.000000" height="8.000000" fill="rgb(0,0,0)" transform="translate(326.801178 0.000000) rotate(0) translate(-0.000000 -4.000000)"/>
<rect width="0.000000" height="8.000000" fill="rgb(0,0,0)" transform="translate(328.530273 0.000000) rotate(0) translate(-0.000000 -4.000000)"/>
<rect width="0.000000" height="8.000000" fill="rgb(0,0,0)" transform="translate(330.259369 0.000000) rotate(0) translate(-0.000000 -4.000000)"/>
<rect width="0.000000" height="8.000000" fill="rgb(0,0,0)" transform="translate(331.988495 0.000000) rotate(0) translate(-0.000000 -4.000000)"/>
<rect width="0.000000" height="8.000000" fill="rgb(0,0,0)" transform="translate(333.717590 0.000000) rotate(0) translate(-0.000000 -4.000000)"/>
<rect width="0.000000" height="8.000000" fill="rgb(0,0,0)" transform="translate(335.446686 0.000000) rotate(0) translate(-0.000000 -4.000000)"/>
<rect width="0.000000" height="8.000000" fill="rgb(0,0,0)" transform="translate(337.175812 0.000000) rotate(0) translate(-0.000000 -4.000000)"/>
<rect width="0.000000" height="8.000000" fill="rgb(0,0,0)" transform="translate(338.904907 0.000000) rotate(0) translate(-0.000000 -4.000000)"/>
<rect width="0.000000" height="8.000000" fill="rgb(0,0,0)" transform="translate(340.634003 0.000000) rotate(0) translate(-0.000000 -4.000000)"/>
<rect width="0.000000" height="8.000000" fill="rgb(0,0,0)" transform="translate(342.363098 0.000000) rotate(0) translate(-0.000000 -4.000000)"/>
<rect width="0.000000" height="8.000000" fill="rgb(0,0,0)" transform="translate(344.092224 0.000000) rotate(0) translate(-0.000000 -4.000000)"/>
<rect width="0.000000" height="8.000000" fill="rgb(0,0,0)" transform="translate(345.821320 0.000000) rotate(0) translate(-0.000000 -4.000000)"/>
<rect width="0.000000" height="8.000000" fill="rgb(0,0,0)" transform="translate(347.550415 0.000000) rotate(0) translate(-0.000000 -4.000000)"/>
<rect width="0.000000" height="8.000000" fill="rgb(0,0,0)" transform="translate(349.279541 0.000000) rotate(0) translate(-0.000000 -4.000000)"/>
<rect width="0.000000" height="8.000000" fill="rgb(0,0,0)" transform="translate(351.008636 0.000000) rotate(0) translate(-0.000000 -4.000000)"/>
<rect width="0.000000" height="8.000000" fill="rgb(0,0,0)" transform="translate(352.737732 0.000000) rotate(0) translate(-0.000000 -4.000000)"/>
<rect width="0.000000" height="8.000000" fill="rgb(0,0,0)" transform="translate(354.466858 0.000000) rotate(0) translate(-0.000000 -4.000000)"/>
<rect width="0.000000" height="8.000000" fill="rgb(0,0,0)" transform="translate(356.195953 0.000000) rotate(0) translate(-0.000000 -4.000000)"/>
<rect width="0.000000" height="8.000000" fill="rgb(0,0,0)" transform="translate(357.925049 0.000000) rotate(0) translate(-0.000000 -4.000000)"/>
<rect width="0.000000" height="8.000000" fill="rgb(0,0,0)" transform="translate(359.654175 0.000000) rotate(0) translate(-0.000000 -4.000000)"/>
<rect width="0.000000" height="8.000000" fill="rgb(0,0,0)" transform="translate(361.383270 0.000000) rotate(0) translate(-0.000000 -4.000000)"/>
<rect width="0.000000" height="8.000000" fill="rgb(0,0,0)" transform="translate(363.112366 0.000000) rotate(0) translate(-0.000000 -4.000000)"/>
<rect width="0.000000" height="8.000000" fill="rgb(0,0,0)" transform="translate(364.841522 0.000000) rotate(0) translate(-0.000000 -4.000000)"/>
<rect width="0.000000" height="8.000000" fill="rgb(0,0,0)" transform="translate(366.570618 0.000000) rotate(0) translate(-0.000000 -4.000000)"/>
<rect width="0.000000" height="8.000000" fill="rgb(0,0,0)" transform="translate(368.299713 0.000000) rotate(0) translate(-0.000000 -4.000000)"/>
<rect width="0.000000" height="8.000000" fill="rgb(0,0,0)" transform="translate(370.028839 0.000000) rotate(0) translate(-0.000000 -4.000000)"/>
<rect width="0.000000" height="8.000000" fill="rgb(0,0,0)" transform="translate(371.757935 0.000000) rotate(0) translate(-0.000000 -4.000000)"/>
<rect width="0.000000" height="8.000000" fill="rgb(0,0,0)" transform="translate(373.487030 0.000000) rotate(0) translate(-0.000000 -4.000000)"/>
<rect width="0.000000" height="8.000000" fill="rgb(0,0,0)" transform="translate(375.216156 0.000000) rotate(0) translate(-0.000000 -4.000000)"/>
<rect width="0.000000" height="8.000000" fill="rgb(0,0,0)" transform="translate(376.945251 0.000000) rotate(0) translate(-0.000000 -4.000000)"/>
<rect width="0.000000" height="8.000000" fill="rgb(0,0,0)" transform="translate(378.674347 0.000000) rotate(0) translate(-0.000000 -4.000000)"/>
<rect width="0.000000" height="8.000000" fill="rgb(0,0,0)" transform="translate(380.403473 0.000000) rotate(0) translate(-0.000000 -4.000000)"/>
<rect width="0.000000" height="8.000000" fill="rgb(0,0,0)" transform="translate(382.132568 0.000000) rotate(0) translate(-0.000000 -4.000000)"/>
<rect width="0.000000" height="8.000000" fill="rgb(0,0,0)" transform="translate(383.861664 0.000000) rotate(0) translate(-0.000000 -4.000000)"/>
<rect width="0.000000" height="8.000000" fill="rgb(0,0,0)" transform="translate(385.590790 0.000000) rotate(0) translate(-0.000000 -4.000000)"/>
<rect width="0.000000" height="8.000000" fill="rgb(0,0,0)" transform="translate(387.319885 0.000000) rotate(0) translate(-0.000000 -4.000000)"/>
<rect width="0.000000" height="8.000000" fill="rgb(0,0,0)" transform="translate(389.048981 0.000000) rotate(0) translate(-0.000000 -4.000000)"/>
<rect width="0.000000" height="8.000000" fill="rgb(0,0,0)" transform="translate(390.778107 0.000000) rotate(0) translate(-0.000000 -4.000000)"/>
<rect width="0.000000" height="8.000000" fill="rgb(0,0,0)" transform="translate(392.507202 0.000000) rotate(0) translate(-0.000000 -4.000000)"/>
<rect width="0.000000" height="8.000000" fill="rgb(0,0,0)" transform="translate(394.236298 0.000000) rotate(0) translate(-0.000000 -4.000000)"/>
<rect width="0.000000" height="8.000000" fill="rgb(0,0,0)" transform="translate(395.965424 0.000000) rotate(0) translate(-0.000000 -4.000000)"/>
<rect width="0.000000" height="8.000000" fill="rgb(0,0,0)" transform="translate(397.694519 0.000000) rotate(0) translate(-0.000000 -4.000000)"/>
<rect width="0.000000" height="8.000000" fill="rgb(0,0,0)" transform="translate(399.423615 0.000000) rotate(0) translate(-0.000000 -4.000000)"/>
<rect width="0.000000" height="8.000000" fill="rgb(0,0,0)" transform="translate(401.152740 0.000000) rotate(0) translate(-0.000000 -4.000000)"/>
<rect width="0.000000" height="8.000000" fill="rgb(0,0,0)" transform="translate(402.881836 0.000000) rotate(0) translate(-0.000000 -4.000000)"/>
<rect width="0.000000" height="8.000000" fill="rgb(0,0,0)" transform="translate(404.610931 0.000000) rotate(0) translate(-0.000000 -4.000000)"/>
<rect width="0.000000" height="8.000000" fill="rgb(0,0,0)" transform="translate(406.340088 0.000000) rotate(0) translate(-0.000000 -4.000000)"/>
<rect width="0.000000" height="8.000000" fill="rgb(0,0,0)" transform="translate(408.069183 0.000000) rotate(0) translate(-0.000000 -4.000000)"/>
<rect width="0.000000" height="8.000000" fill="rgb(0,0,0)" transform="translate(409.798279 0.000000) rotate(0) translate(-0.000000 -4.000000)"/>
<rect width="0.000000" height="8.000000" fill="rgb(0,0,0)" transform="translate(411.527405 0.000000) rotate(0) translate(-0.000000 -4.000000)"/>
<rect width="0.000000" height="8.000000" fill="rgb(0,0,0)" transform="translate(413.256500 0.000000) rotate(0) translate(-0.000000 -4.000000)"/>
<rect width="0.000000" height="8.000000" fill="rgb(0,0,0)" transform="translate(414.985596 0.000000) rotate(0) translate(-0.000000 -4.000000)"/>
<rect width="0.000000" height="8.000000" fill="rgb(0,0,0)" transform="translate(416.714691 0.000000) rotate(0) translate(-0.000000 -4.000000)"/>
<rect width="0.000000" height="8.000000" fill="rgb(0,0,0)" transform="translate(418.443817 0.000000) rotate(0) translate(-0.000000 -4.000000)"/>
<rect width="0.000000" height="8.000000" fill="rgb(0,0,0)" transform="translate(420.172913 0.000000) rotate(0) translate(-0.000000 -4.000000)"/>
<rect width="0.000000" height="8.000000" fill="rgb(0,0,0)" transform="translate(421.902008 0.000000) rotate(0) translate(-0.000000 -4.000000)"/>
<rect width="0.000000" height="8.000000" fill="rgb(0,0,0)" transform="translate(423.631134 0.000000) rotate(0) translate(-0.000000 -4.000000)"/>
<rect width="0.000000" height="8.000000" fill="rgb(0,0,0)" transform="translate(425.360229 0.000000) rotate(0) translate(-0.000000 -4.000000)"/>
<rect width="0.000000" height="8.000000" fill="rgb(0,0,0)" transform="translate(427.089325 0.000000) rotate(0) translate(-0.000000 -4.000000)"/>
<rect width="0.000000" height="8.000000" fill="rgb(0,0,0)" transform="translate(428.818451 0.000000) rotate(0) translate(-0.000000 -4.000000)"/>
<rect width="0.000000" height="8.000000" fill="rgb(0,0,0)" transform="translate(430.547546 0.000000) rotate(0) translate(-0.000000 -4.000000)"/>
<rect width="0.000000" height="8.000000" fill="rgb(0,0,0)" transform="translate(432.276642 0.000000) rotate(0) translate(-0.000000 -4.000000)"/>
<rect width="0.000000" height="8.000000" fill="rgb(0,0,0)" transform="translate(434.005768 0.000000) rotate(0) translate(-0.000000 -4.000000)"/>
<rect width="0.000000" height="8.000000" fill="rgb(0,0,0)" transform="translate(435.734863 0.000000) rotate(0) translate(-0.000000 -4.000000)"/>
<rect width="0.000000" height="8.000000" fill="rgb(0,0,0)" transform="translate(437.463959 0.000000) rotate(0) translate(-0.000000 -4.000000)"/>
<rect width="0.000000" height="8.000000" fill="rgb(0,0,0)" transform="translate(439.193085 0.000000) rotate(0) translate(-0.000000 -4.000000)"/>
<rect width="0.000000" height="8.000000" fill="rgb(0,0,0)" transform="translate(440.922180 0.000000) rotate(0) translate(-0.000000 -4.000000)"/>
<rect width="0.000000" height="8.000000" fill="rgb(0,0,0)" transform="translate(442.651276 0.000000) rotate(0) translate(-0.000000 -4.000000)"/>
<rect width="0.000000" height="8.000000" fill="rgb(0,0,0)" transform="translate(444.380402 0.000000) rotate(0) translate(-0.000000 -4.000000)"/>
<rect width="0.000000" height="8.000000" fill="rgb(0,0,0)" transform="translate(446.109497 0.000000) rotate(0) translate(-0.000000 -4.000000)"/>
<rect width="0.000000" height="8.000000" fill="rgb(0,0,0)" transform="translate(447.838593 0.000000) rotate(0) translate(-0.000000 -4.000000)"/>
<rect width="0.000000" height="8.000000" fill="rgb(0,0,0)" transform="translate(449.567749 0.000000) rotate(0) translate(-0.000000 -4.000000)"/>
<rect width="0.000000" height="8.000000" fill="rgb(0,0,0)" transform="translate(451.296844 0.000000) rotate(0) translate(-0.000000 -4.000000)"/>
<rect width="0.000000" height="8.000000" fill="rgb(0,0,0)" transform="translate(453.025940 0.000000) rotate(0) translate(-0.000000 -4.000000)"/>
<rect width="0.000000" height="8.000000" fill="rgb(0,0,0)" transform="translate(454.755066 0.000000) rotate(0) translate(-0.000000 -4.000000)"/>
<rect width="0.000000" height="8.000000" fill="rgb(0,0,0)" transform="translate(456.484161 0.000000) rotate(0) translate(-0.000000 -4.000000)"/>
<rect width="0.000000" height="8.000000" fill="rgb(0,0,0)" transform="translate(458.213257 0.000000) rotate(0) translate(-0.000000 -4.000000)"/>
<rect width="0.000000" height="8.000000" fill="rgb(0,0,0)" transform="translate(459.942383 0.000000) rotate(0) translate(-0.000000 -4.000000)"/>
<rect width="0.000000" height="8.000000" fill="rgb(0,0,0)" transform="translate(461.671478 0.000000) rotate(0) translate(-0.000000 -4.000000)"/>
<rect width="0.000000" height="8.000000" fill="rgb(0,0,0)" transform="translate(463.400574 0.000000) rotate(0) translate(-0.000000 -4.000000)"/>
<rect width="0.000000" height="8.000000" fill="rgb(0,0,0)" transform="translate(465.129700 0.000000) rotate(0) translate(-0.000000 -4.000000)"/>
<rect width="0.000000" height="8.000000" fill="rgb(0,0,0)" transform="translate(466.858795 0.000000) rotate(0) translate(-0.000000 -4.000000)"/>
<rect width="0.000000" height="8.000000" fill="rgb(0,0,0)" transform="translate(468.587891 0.000000) rotate(0) translate(-0.000000 -4.000000)"/>
<rect width="0.000000" height="8.000000" fill="rgb(0,0,0)" transform="translate(470.317017 0.000000) rotate(0) translate(-0.000000 -4.000000)"/>
<rect width="0.000000" height="8.000000" fill="rgb(0,0,0)" transform="translate(472.046112 0.000000) rotate(0) translate(-0.000000 -4.000000)"/>
<rect width="0.000000" height="8.000000" fill="rgb(0,0,0)" transform="translate(473.775208 0.000000) rotate(0) translate(-0.000000 -4.000000)"/>
<rect width="0.000000" height="8.000000" fill="rgb(0,0,0)" transform="translate(475.504333 0.000000) rotate(0) translate(-0.000000 -4.000000)"/>
<rect width="0.000000" height="8.000000" fill="rgb(0,0,0)" transform="translate(477.233429 0.000000) rotate(0) translate(-0.000000 -4.000000)"/>
<rect width="0.000000" height="8.000000" fill="rgb(0,0,0)" transform="translate(478.962524 0.000000) rotate(0) translate(-0.000000 -4.000000)"/>
<rect width="0.000000" height="8.000000" fill="rgb(0,0,0)" transform="translate(480.691650 0.000000) rotate(0) translate(-0.000000 -4.000000)"/>
<rect width="0.000000" height="8.000000" fill="rgb(0,0,0)" transform="translate(482.420746 0.000000) rotate(0) translate(-0.000000 -4.000000)"/>
<rect width="0.000000" height="8.000000" fill="rgb(0,0,0)" transform="translate(484.149841 0.000000) rotate(0) translate(-0.000000 -4.000000)"/>
<rect width="0.000000" height="8.000000" fill="rgb(0,0,0)" transform="translate(485.878967 0.000000) rotate(0) translate(-0.000000 -4.000000)"/>
<rect width="0.000000" height="8.000000" fill="rgb(0,0,0)" transform="translate(487.608063 0.000000) rotate(0) translate(-0.000000 -4.000000)"/>
<rect width="0.000000" height="8.000000" fill="rgb(0,0,0)" transform="translate(489.337158 0.000000) rotate(0) translate(-0.000000 -4.000000)"/>
<rect width="0.000000" height="8.000000" fill="rgb(0,0,0)" transform="translate(491.066254 0.000000) rotate(0) translate(-0.000000 -4.000000)"/>
<rect width="0.000000" height="8.000000" fill="rgb(0,0,0)" transform="translate(492.795410 0.000000) rotate(0) translate(-0.000000 -4.000000)"/>
<rect width="0.000000" height="8.000000" fill="rgb(0,0,0)" transform="translate(494.524506 0.000000) rotate(0) translate(-0.000000 -4.000000)"/>
<rect width="0.000000" height="8.000000" fill="rgb(0,0,0)" transform="translate(496.253601 0.000000) rotate(0) translate(-0.000000 -4.000000)"/>
<rect width="0.000000" height="8.000000" fill="rgb(0,0,0)" transform="translate(497.982727 0.000000) rotate(0) translate(-0.000000 -4.000000)"/>
<rect width="0.000000" height="8.000000" fill="rgb(0,0,0)" transform="translate(499.711823 0.000000) rotate(0) translate(-0.000000 -4.000000)"/>
<rect width="0.000000" height="8.000000" fill="rgb(0,0,0)" transform="translate(501.440918 0.000000) rotate(0) translate(-0.000000 -4.000000)"/>
<rect width="0.000000" height="8.000000" fill="rgb(0,0,0)" transform="translate(503.170044 0.000000) rotate(0) translate(-0.000000 -4.000000)"/>
<rect width="0.000000" height="8.000000" fill="rgb(0,0,0)" transform="translate(504.899139 0.000000) rotate(0) translate(-0.000000 -4.000000)"/>
<rect width="0.000000" height="8.000000" fill="rgb(0,0,0)" transform="translate(506.628235 0.000000) rotate(0) translate(-0.000000 -4.000000)"/>
<rect width="0.000000" height="8.000000" fill="rgb(0,0,0)" transform="translate(508.357361 0.000000) rotate(0) translate(-0.000000 -4.000000)"/>
<rect width="0.000000" height="8.000000" fill="rgb(0,0,0)" transform="translate(510.086456 0.000000) rotate(0) translate(-0.000000 -4.000000)"/>
<rect width="0.000000" height="8.000000" fill="rgb(0,0,0)" transform="translate(511.815552 0.000000) rotate(0) translate(-0.000000 -4.000000)"/>
<rect width="0.000000" height="8.000000" fill="rgb(0,0,0)" transform="translate(513.544678 0.000000) rotate(0) translate(-0.000000 -4.000000)"/>
<rect width="0.000000" height="8.000000" fill="rgb(0,0,0)" transform="translate(515.273804 0.000000) rotate(0) translate(-0.000000 -4.000000)"/>
<rect width="0.000000" height="8.000000" fill="rgb(0,0,0)" transform="translate(517.002869 0.000000) rotate(0) translate(-0.000000 -4.000000)"/>
<rect width="0.000000" height="8.000000" fill="rgb(0,0,0)" transform="translate(518.731995 0.000000) rotate(0) translate(-0.000000 -4.000000)"/>
<rect width="0.000000" height="8.000000" fill="rgb(0,0,0)" transform="translate(520.461121 0.000000) rotate(0) translate(-0.000000 -4.000000)"/>
<rect width="0.000000" height="8.000000" fill="rgb(0,0,0)" transform="translate(522.190186 0.000000) rotate(0) translate(-0.000000 -4.000000)"/>
<rect width="0.000000" height="8.000000" fill="rgb(0,0,0)" transform="translate(523.919312 0.000000) rotate(0) translate(-0.000000 -4.000000)"/>
<rect width="0.000000" height="8.000000" fill="rgb(0,0,0)" transform="translate(525.648438 0.000000) rotate(0) translate(-0.000000 -4.000000)"/>
<rect width="0.000000" height="8.000000" fill="rgb(0,0,0)" transform="translate(527.377502 0.000000) rotate(0) translate(-0.000000 -4.000000)"/>
<rect width="0.000000" height="8.000000" fill="rgb(0,0,0)" transform="translate(529.106628 0.000000) rotate(0) translate(-0.000000 -4.000000)"/>
<rect width="0.000000" height="8.000000" fill="rgb(0,0,0)" transform="translate(530.835754 0.000000) rotate(0) translate(-0.000000 -4.000000)"/>
<rect width="0.000000" height="8.000000" fill="rgb(0,0,0)" transform="translate(532.564819 0.000000) rotate(0) translate(-0.000000 -4.000000)"/>
<rect width="0.000000" height="8.000000" fill="rgb(0,0,0)" transform="translate(534.293945 0.000000) rotate(0) translate(-0.000000 -4.000000)"/>
<rect width="0.000000" height="8.000000" fill="rgb(0,0,0)" transform="translate(536.023071 0.000000) rotate(0) translate(-0.000000 -4.000000)"/>
<rect width="0.000000" height="8.000000" fill="rgb(0,0,0)" transform="translate(537.752136 0.000000) rotate(0) translate(-0.000000 -4.000000)"/>
<rect width="0.000000" height="8.000000" fill="rgb(0,0,0)" transform="translate(539.481262 0.000000) rotate(0) translate(-0.000000 -4.000000)"/>
<rect width="0.000000" height="8.000000" fill="rgb(0,0,0)" transform="translate(541.210388 0.000000) rotate(0) translate(-0.000000 -4.000000)"/>
<rect width="0.000000" height="8.000000" fill="rgb(0,0,0)" transform="translate(542.939453 0.000000) rotate(0) translate(-0.000000 -4.000000)"/>
<rect width="0.000000" height="8.000000" fill="rgb(0,0,0)" transform="translate(544.668579 0.000000) rotate(0) translate(-0.000000 -4.000000)"/>
<rect width="0.000000" height="8.000000" fill="rgb(0,0,0)" transform="translate(546.397705 0.000000) rotate(0) translate(-0.000000 -4.000000)"/>
<rect width="0.000000" height="8.000000" fill="rgb(0,0,0)" transform="translate(548.126770 0.000000) rotate(0) translate(-0.000000 -4.000000)"/>
<rect width="0.000000" height="8.000000" fill="rgb(0,0,0)" transform="translate(549.855896 0.000000) rotate(0) translate(-0.000000 -4.000000)"/>
<rect width="0.000000" height="8.000000" fill="rgb(0,0,0)" transform="translate(551.585022 0.000000) rotate(0) translate(-0.000000 -4.000000)"/>
<rect width="0.000000" height="8.000000" fill="rgb(0,0,0)" transform="translate(553.314087 0.000000) rotate(0) translate(-0.000000 -4.000000)"/>
<rect width="0.000000" height="8.000000" fill="rgb(0,0,0)" transform="translate(555.043274 0.000000) rotate(0) translate(-0.000000 -4.000000)"/>
<rect width="0.000000" height="8.000000" fill="rgb(0,0,0)" transform="translate(556.772339 0.000000) rotate(0) translate(-0.000000 -4.000000)"/>
<rect width="0.000000" height="8.000000" fill="rgb(0,0,0)" transform="translate(558.501465 0.000000) rotate(0) translate(-0.000000 -4.000000)"/>
<rect width="0.000000" height="8.000000" fill="rgb(0,0,0)" transform="translate(560.230591 0.000000) rotate(0) translate(-0.000000 -4.000000)"/>
<rect width="0.000000" height="8.000000" fill="rgb(0,0,0)" transform="translate(561.959656 0.000000) rotate(0) translate(-0.000000 -4.000000)"/>
<rect width="0.000000" height="8.000000" fill="rgb(0,0,0)" transform="translate(563.688782 0.000000) rotate(0) translate(-0.000000 -4.000000)"/>
<rect width="0.000000" height="8.000000" fill="rgb(0,0,0)" transform="translate(565.417847 0.000000) rotate(0) translate(-0.000000 -4.000000)"/>
<rect width="0.000000" height="8.000000" fill="rgb(0,0,0)" transform="translate(567.146973 0.000000) rotate(0) translate(-0.000000 -4.000000)"/>
<rect width="0.000000" height="8.000000" fill="rgb(0,0,0)" transform="translate(568.876099 0.000000) rotate(0) translate(-0.000000 -4.000000)"/>
<rect width="0.000000" height="8.000000" fill="rgb(0,0,0)" transform="translate(570.605164 0.000000) rotate(0) translate(-0.000000 -4.000000)"/>
<rect width="0.000000" height="8.000000" fill="rgb(0,0,0)" transform="translate(572.334290 0.000000) rotate(0) translate(-0.000000 -4.000000)"/>
<rect width="0.000000" height="8.000000" fill="rgb(0,0,0)" transform="translate(574.063416 0.000000) rotate(0) translate(-0.000000 -4.000000)"/>
<rect width="0.000000" height="8.000000" fill="rgb(0,0,0)" transform="translate(575.792480 0.000000) rotate(0) translate(-0.000000 -4.000000)"/>
<rect width="0.000000" height="8.000000" fill="rgb(0,0,0)" transform="translate(577.521606 0.000000) rotate(0) translate(-0.000000 -4.000000)"/>
<rect width="0.000000" height="8.000000" fill="rgb(0,0,0)" transform="translate(579.250732 0.000000) rotate(0) translate(-0.000000 -4.000000)"/>
<rect width="0.000000" height="8.000000" fill="rgb(0,0,0)" transform="translate(580.979797 0.000000) rotate(0) translate(-0.000000 -4.000000)"/>
<rect width="0.000000" height="8.000000" fill="rgb(0,0,0)" transform="translate(582.708923 0.000000) rotate(0) translate(-0.000000 -4.000000)"/>
<rect width="0.000000" height="8.000000" fill="rgb(0,0,0)" transform="translate(584.438049 0.000000) rotate(0) translate(-0.000000 -4.000000)"/>
<rect width="0.000000" height="8.000000" fill="rgb(0,0,0)" transform="translate(586.167114 0.000000) rotate(0) translate(-0.000000 -4.000000)"/>
<rect width="0.000000" height="8.000000" fill="rgb(0,0,0)" transform="translate(587.896240 0.000000) rotate(0) translate(-0.000000 -4.000000)"/>
<rect width="0.000000" height="8.000000" fill="rgb(0,0,0)" transform="translate(589.625366 0.000000) rotate(0) translate(-0.000000 -4.000000)"/>
<rect width="0.000000" height="8.000000" fill="rgb(0,0,0)" transform="translate(591.354431 0.000000) rotate(0) translate(-0.000000 -4.000000)"/>
<rect width="0.000000" height="8.000000" fill="rgb(0,0,0)" transform="translate(593.083557 0.000000) rotate(0) translate(-0.000000 -4.000000)"/>
<rect width="0.000000" height="8.000000" fill="rgb(0,0,0)" transform="translate(594.812683 0.000000) rotate(0) translate(-0.000000 -4.000000)"/>
<rect width="0.000000" height="8.000000" fill="rgb(0,0,0)" transform="translate(596.541748 0.000000) rotate(0) translate(-0.000000 -4.000000)"/>
<rect width="0.000000" height="8.000000" fill="rgb(0,0,0)" transform="translate(598.270935 0.000000) rotate(0) translate(-0.000000 -4.000000)"/>
</svg>